# xmcd
#
# Track frame offsets:
#	150
#	30147
#	46785
#	91930
#	135651
#	172618
#	189352
#	203097
#	244718
#	270989
#	306197
#	321248
#
# Disc length: 4677 seconds
#
# Revision: 1
# Processed by: cddbd v1.5.2PL0 Copyright (c) Steve Scherf et al.
# Submitted via: audiograbber 1.83.01
#
DISCID=8912430c
DTITLE=Grateful Dead - 78-05-11A Springfield Civic Centre Arena, Springfield MA
DYEAR=1900
DGENRE=
TTITLE0=Cold Rain and Snow
TTITLE1=Beat It On Down The Line
TTITLE2=Friend Of The Devil
TTITLE3=Looks Like Rain
TTITLE4=Loser
TTITLE5=Mexicali Blues
TTITLE6=Mama Tried
TTITLE7=Tennessee Jed
TTITLE8=New Minglewood Blues
TTITLE9=Peggy-O
TTITLE10=Lazy Lightning
TTITLE11=Supplication
EXTD=
EXTT0=
EXTT1=
EXTT2=
EXTT3=
EXTT4=
EXTT5=
EXTT6=
EXTT7=
EXTT8=
EXTT9=
EXTT10=
EXTT11=
PLAYORDER=
